<?xml version="1.0" encoding="utf-8"?>
<!-- Generator: Adobe Illustrator 16.0.0, SVG Export Plug-In . SVG Version: 6.00 Build 0)  -->
<!DOCTYPE svg PUBLIC "-//W3C//DTD SVG 1.1//EN" "http://www.w3.org/Graphics/SVG/1.1/DTD/svg11.dtd">
<svg version="1.1" id="Layer_1" xmlns="http://www.w3.org/2000/svg" xmlns:xlink="http://www.w3.org/1999/xlink" x="0px" y="0px"
	 width="179.293px" height="257.65px" viewBox="0 0 179.293 257.65" enable-background="new 0 0 179.293 257.65"
	 xml:space="preserve">
<g id="gb9L4o.tif">
	<g>
		<path fill="#F47735" d="M73.796,83.872c0.386-0.606,0.681-1.304,1.172-1.81c4.774-4.903,10.626-7.853,17.362-8.67
			c4.217-0.513,7.031,0.944,8.885,5.791c2.029,5.303,3.102,10.938,3.334,16.646c0.143,3.5-0.598,6.924-1.816,10.224
			c-0.526,1.432-1.42,2.6-2.715,3.358c-5.281,3.099-10.958,5.056-17.058,5.705c-1.218,0.13-2.464,0.072-3.278-1.53
			c3.181,0.945,5.805-0.521,8.543-1.266c2.785-0.758,5.352-2.01,7.796-3.572c3.332-2.13,4.865-5.062,4.912-9.021
			c0.062-5.218-0.492-10.363-1.244-15.502c-0.141-0.962-0.414-1.911-0.698-2.846c-1.14-3.718-3.689-5.706-7.628-5.452
			c-6.333,0.407-12.066,2.422-16.6,7.128c-0.291,0.303-0.638,0.552-0.958,0.824L73.796,83.872z"/>
		<path fill="#F47735" d="M48.547,85.625c0.785,0.109,1.57,0.298,2.355,0.302c0.634,0.003,1.27-0.218,2.119-0.38
			c-0.271-0.564-0.397-0.945-0.615-1.265c-0.888-1.299-0.837-1.955,0.328-2.977c0.365-0.321,0.767-0.615,1.19-0.854
			c2.938-1.652,4.227-4.281,4.506-7.521c0.031-0.353,0.081-0.703,0.146-1.271c0.896,0.634,1.046,1.449,0.957,2.175
			c-0.259,2.107-0.524,4.23-1.033,6.286c-0.497,2.007-1.388,3.914-1.939,5.911c-0.633,2.296,0.484,3.945,2.878,4.001
			c2.24,0.052,4.492-0.311,6.738-0.492c0.782-0.062,1.563-0.131,2.389,0.062c-1.136,0.19-2.268,0.399-3.406,0.568
			c-2.681,0.397-5.021,1.477-6.958,3.396c-0.781,0.771-1.565,1.546-2.379,2.285c-0.427,0.387-0.922,0.698-1.486,1.12
			c-0.676-1.199-0.33-2.141,0.074-2.989c1.204-2.532,0.802-4.146-1.997-6.013c-1.258-0.842-2.68-1.438-4.028-2.146
			C48.44,85.759,48.493,85.693,48.547,85.625z"/>
		<path fill="#F47735" d="M63.106,27.321c-3.802,2.943-7.61,5.879-11.402,8.836c-0.973,0.759-2.019,1.149-3.236,0.819
			c-2.402-0.649-4.838-1.211-7.177-2.043c-1.387-0.494-2.641-1.478-2.501-3.235c0.142-1.792,1.607-2.316,3.034-2.739
			c1.875-0.555,3.791-0.83,5.793-0.37c-0.955,0.188-1.94,0.284-2.857,0.586c-1.026,0.341-2.092,0.726-2.956,1.349
			c-1.06,0.763-0.95,1.901,0.224,2.494c0.958,0.482,2.052,0.77,3.119,0.956c2.65,0.461,5.131,0.227,7.521-1.343
			c2.645-1.735,5.502-3.146,8.288-4.663c0.632-0.344,1.347-0.534,2.024-0.796C63.021,27.222,63.063,27.272,63.106,27.321z"/>
		<path fill="#F47735" d="M58.848,55.912c-0.48,0.354-0.946,0.727-1.442,1.055c-3.455,2.302-5.983,5.345-7.576,9.195
			c-1.731,4.186-3.33,8.405-4.179,12.875c-0.089,0.469-0.228,0.929-0.344,1.394c-0.124-0.001-0.248-0.005-0.372-0.007
			c0.047-0.961-0.029-1.948,0.164-2.881c0.554-2.69,1.188-5.367,1.845-8.035c0.458-1.859,0.703-3.701,0.318-5.616
			c-0.155-0.775-0.025-1.607,0.293-2.447c0.281,0.804,0.562,1.607,0.843,2.412c0.147,0.001,0.294,0.002,0.441,0.004
			c0.201-0.534,0.524-1.056,0.582-1.604c0.213-2.056,0.371-4.12,0.487-6.185c0.096-1.704,0.084-3.414,0.166-5.118
			c0.019-0.389,0.227-0.768,0.504-1.144c-0.34,3.197,0.492,6.207,0.992,9.354c2.496-1.307,4.75-2.487,7.004-3.667
			C58.665,55.635,58.757,55.774,58.848,55.912z"/>
		<path fill="#F47735" d="M79.66,116.93c1.16,1.978,3.01,2.37,5.015,2.575c3.068,0.315,6.117,0.188,9.104-0.486
			c3.535-0.796,6.404-2.697,8.298-5.857c0.543-0.909,0.86-1.952,1.375-3.146c0.551,2.554-0.218,4.541-1.646,6.309
			c-1.822,2.253-4.203,3.736-6.965,4.522c-3.959,1.127-7.967,1.148-11.947,0.085c-0.861-0.23-1.706-0.684-2.438-1.201
			C79.559,119.096,79.178,118.157,79.66,116.93z"/>
		<path fill="#F47735" d="M80.875,73.008c-1.467,1.857-3.322,3.315-5.203,4.731c-3.188,2.396-6.743,4.157-10.349,5.827
			c-2.075,0.961-4.113,2.003-6.168,3.009c-0.083-0.098-0.166-0.196-0.249-0.294c0.719-0.688,1.349-1.516,2.174-2.037
			c3.04-1.921,6.132-3.76,9.226-5.595c3.254-1.929,6.529-3.818,9.798-5.72c0.151-0.089,0.334-0.125,0.502-0.187
			C80.696,72.832,80.785,72.919,80.875,73.008z"/>
		<path fill="#F47735" d="M90.68,103.688c-1.201-1.152-1.231-2.671-0.951-4.081c0.439-2.201,1.145-4.353,1.77-6.516
			c0.728-2.511,1.533-4.998,2.205-7.522c0.229-0.861,0.153-1.804,0.239-3.025c0.318,0.467,0.541,0.69,0.644,0.961
			c1.195,3.156,1.274,6.323-0.065,9.453c-0.695,1.624-1.494,3.205-2.273,4.793c-0.92,1.878-1.691,3.789-1.568,5.939V103.688z"/>
		<path fill="#F47735" d="M77.611,104.608c-1.153-6.19-5.176-10.059-11.562-11.122c-0.271-0.045-0.535-0.13-0.961-0.234
			c0.317-0.216,0.453-0.385,0.603-0.397c4.396-0.401,8.401,0.421,11.363,3.995C78.961,99.15,79.107,102.311,77.611,104.608z"/>
		<path fill="#F47735" d="M62.648,95.219c0.96,3.02,3.403,5.114,4.522,8.102c-2.899-0.034-7.854-3.716-9.402-6.874
			c0.975-0.813,2.025-0.997,3.225-0.423C61.46,95.795,61.941,95.562,62.648,95.219z"/>
		<path fill="#F47735" d="M77.088,69.923c-1.195,1.279-2.258,2.729-3.617,3.796c-1.907,1.499-3.976,2.821-6.087,4.022
			c-2.334,1.328-4.715,2.55-6.723,4.562c0.072-0.35,0.047-0.765,0.232-1.038c0.706-1.056,1.265-2.405,2.264-3.032
			c4.581-2.876,9.293-5.543,13.956-8.285L77.088,69.923z"/>
		<path fill="#F47735" d="M59.63,34.498c-1.676,2.174-3.377,4.329-5.02,6.527c-1.207,1.615-2.275,3.335-3.518,4.92
			c-1.5,1.914-2.198,4.021-2.208,6.45c-0.005,1.389-0.213,2.799-0.52,4.156c-0.25,1.106-0.878,2.067-2.357,2.823
			c0.316-0.709,0.42-1.042,0.599-1.33c0.869-1.397,1.2-2.922,1.163-4.552c-0.018-0.794-0.007-1.59,0.036-2.383
			c0.105-1.938,0.698-3.633,1.974-5.195c1.775-2.173,3.217-4.618,4.977-6.805c1.402-1.743,3.068-3.273,4.617-4.897
			C59.459,34.309,59.545,34.404,59.63,34.498z"/>
		<path fill="#F47735" d="M79.057,110.526c-3.219-0.021-6.504-1.816-7.271-4.125c2.499-0.688,5.134,0.594,7.566-0.722
			C79.831,107.51,80.014,109.072,79.057,110.526z"/>
		<path fill="#F47735" d="M88.979,106.116c-3.118-1.052-6.023-3.758-6.269-5.898c0.483,0.027,0.958-0.032,1.376,0.095
			c1.333,0.401,2.678,0.799,3.948,1.355c0.484,0.214,0.838,0.822,1.146,1.316c0.312,0.497,0.498,1.076,0.793,1.745
			C89.703,105.106,89.359,105.585,88.979,106.116z"/>
		<path fill="#F47735" d="M41.151,36.293c2.823,0.652,5.52,1.71,7.937,3.354c1.029,0.7,0.971,1.625,0.04,3.631
			C46.467,40.947,43.809,38.62,41.151,36.293z"/>
		<path fill="#F47735" d="M79.925,86.68c2.425-1.943,4.727-4.074,7.309-5.778c2.57-1.697,5.475-2.089,8.348-0.47
			c0.539,0.305,1.01,0.733,1.326,1.401c-0.217-0.055-0.461-0.063-0.646-0.173c-2.453-1.435-5.012-1.241-7.395-0.072
			c-2.401,1.178-4.619,2.727-6.912,4.119c-0.624,0.379-1.229,0.79-1.844,1.188C80.05,86.823,79.988,86.751,79.925,86.68z"/>
		<path fill="#F47735" d="M75.873,91.341c1.062-0.143,2.084-0.279,3.233-0.435c1.022,1.691,2.094,3.46,3.259,5.386
			C79.774,96.059,76.704,93.69,75.873,91.341z"/>
		<path fill="#F47735" d="M80.112,86.895c-2.627,2.357-5.853,2.414-9.11,2.353c3.089-0.464,6.14-1.057,8.924-2.566
			C79.988,86.751,80.05,86.823,80.112,86.895z"/>
		<path fill="#F47735" d="M46.288,84.599c0.753,0.343,1.506,0.685,2.259,1.025c-0.054,0.067-0.107,0.134-0.16,0.201
			c-0.705-0.403-1.411-0.807-2.116-1.211L46.288,84.599z"/>
		<path fill="#F47735" d="M59.373,34.214c0.212-0.15,0.423-0.301,0.635-0.451c0.142,0.15,0.284,0.303,0.426,0.454
			c-0.268,0.094-0.536,0.188-0.804,0.281C59.545,34.404,59.459,34.309,59.373,34.214z"/>
		<path fill="#F47735" d="M73.804,83.879c-0.124,0.237-0.247,0.477-0.37,0.713l0.021,0.022c0.114-0.246,0.228-0.494,0.342-0.741
			L73.804,83.879z"/>
		<path fill="#F47735" d="M62.733,27.295c0.123-0.017,0.247-0.034,0.37-0.051c-0.08,0.066-0.161,0.133-0.242,0.2
			C62.819,27.394,62.776,27.344,62.733,27.295z"/>
		<path fill="#F47735" d="M45.922,84.226l-0.023,0.021C45.898,84.249,45.922,84.226,45.922,84.226z"/>
		<path fill="#F47735" d="M46.271,84.615c-0.116-0.129-0.232-0.26-0.349-0.389c0-0.001-0.023,0.021-0.023,0.021
			c0.129,0.116,0.259,0.234,0.389,0.351L46.271,84.615z"/>
		<path fill="#F47735" d="M77.112,69.948l-0.023-0.024L77.112,69.948z"/>
		<path fill="#F47735" d="M73.434,84.592l0.021,0.022L73.434,84.592z"/>
		<path fill="#F47735" d="M90.678,103.69l0.002-0.002L90.678,103.69z"/>
	</g>
</g>
</svg>
