<?xml version="1.0" encoding="utf-8"?>
<!-- Generator: Adobe Illustrator 16.0.0, SVG Export Plug-In . SVG Version: 6.00 Build 0)  -->
<!DOCTYPE svg PUBLIC "-//W3C//DTD SVG 1.1//EN" "http://www.w3.org/Graphics/SVG/1.1/DTD/svg11.dtd">
<svg version="1.1" id="Layer_1" xmlns="http://www.w3.org/2000/svg" xmlns:xlink="http://www.w3.org/1999/xlink" x="0px" y="0px"
	 width="179.293px" height="257.76px" viewBox="0 -0.055 179.293 257.76" enable-background="new 0 -0.055 179.293 257.76"
	 xml:space="preserve">
<g id="gb9L4o.tif">
	<g>
		<path fill="#F47735" d="M95.436,154.525c1.053-1.656,1.854-3.556,3.193-4.931c13.014-13.364,28.959-21.399,47.316-23.631
			c11.492-1.396,19.162,2.574,24.216,15.781c5.528,14.45,8.452,29.812,9.084,45.363c0.388,9.539-1.63,18.868-4.951,27.863
			c-1.438,3.897-3.868,7.081-7.399,9.153c-14.39,8.443-29.865,13.777-46.487,15.547c-3.316,0.354-6.714,0.197-8.933-4.169
			c8.666,2.575,15.819-1.419,23.281-3.45c7.588-2.065,14.587-5.479,21.25-9.735c9.082-5.805,13.258-13.793,13.385-24.589
			c0.168-14.219-1.34-28.244-3.389-42.249c-0.384-2.621-1.126-5.209-1.904-7.75c-3.104-10.136-10.054-15.552-20.787-14.861
			c-17.262,1.11-32.887,6.598-45.242,19.424c-0.793,0.824-1.737,1.503-2.612,2.249L95.436,154.525z"/>
		<path fill="#F47735" d="M26.622,159.302c2.14,0.298,4.279,0.812,6.42,0.82c1.729,0.008,3.461-0.592,5.775-1.034
			c-0.737-1.541-1.082-2.58-1.676-3.447c-2.419-3.537-2.281-5.328,0.894-8.112c0.996-0.874,2.09-1.675,3.243-2.323
			c8.008-4.502,11.52-11.666,12.282-20.496c0.083-0.959,0.218-1.914,0.398-3.462c2.441,1.729,2.851,3.95,2.608,5.928
			c-0.705,5.743-1.429,11.527-2.815,17.131c-1.354,5.471-3.783,10.668-5.284,16.111c-1.725,6.255,1.32,10.752,7.842,10.903
			c6.107,0.142,12.242-0.847,18.364-1.342c2.131-0.172,4.261-0.355,6.509,0.168c-3.094,0.521-6.179,1.093-9.282,1.553
			c-7.305,1.082-13.682,4.021-18.962,9.248c-2.13,2.108-4.266,4.215-6.485,6.229c-1.164,1.056-2.513,1.906-4.049,3.052
			c-1.842-3.267-0.9-5.83,0.2-8.146c3.282-6.901,2.187-11.293-5.44-16.387c-3.43-2.291-7.304-3.918-10.977-5.846
			C26.331,159.667,26.476,159.484,26.622,159.302z"/>
		<path fill="#F47735" d="M66.302,0.404C55.939,8.426,45.56,16.427,35.226,24.486c-2.652,2.068-5.502,3.132-8.82,2.233
			C19.86,24.949,13.22,23.419,6.847,21.15c-3.779-1.345-7.198-4.023-6.818-8.816c0.387-4.883,4.381-6.311,8.27-7.463
			c5.109-1.513,10.332-2.263,15.787-1.008c-2.603,0.511-5.288,0.772-7.786,1.599c-2.797,0.926-5.702,1.977-8.057,3.672
			c-2.889,2.08-2.59,5.184,0.609,6.798c2.613,1.318,5.594,2.099,8.501,2.604c7.222,1.257,13.984,0.616,20.496-3.657
			c7.207-4.729,14.996-8.578,22.586-12.709c1.723-0.938,3.672-1.457,5.517-2.17C66.069,0.135,66.185,0.27,66.302,0.404z"/>
		<path fill="#F47735" d="M54.697,78.324c-1.308,0.962-2.58,1.979-3.93,2.877c-9.416,6.271-16.306,14.564-20.646,25.059
			c-4.717,11.405-9.075,22.907-11.39,35.087c-0.243,1.278-0.621,2.531-0.936,3.797c-0.337-0.004-0.675-0.011-1.013-0.016
			c0.127-2.622-0.078-5.312,0.445-7.854c1.51-7.333,3.237-14.626,5.028-21.896c1.249-5.069,1.917-10.088,0.867-15.31
			c-0.424-2.113-0.07-4.381,0.799-6.668c0.766,2.19,1.531,4.382,2.297,6.572c0.4,0.004,0.801,0.008,1.201,0.012
			c0.548-1.455,1.43-2.877,1.585-4.373c0.58-5.604,1.01-11.229,1.327-16.855c0.261-4.643,0.229-9.303,0.452-13.947
			c0.051-1.059,0.617-2.093,1.373-3.116c-0.928,8.717,1.341,16.915,2.704,25.496c6.802-3.562,12.945-6.777,19.088-9.993
			C54.198,77.57,54.448,77.947,54.697,78.324z"/>
		<path fill="#F47735" d="M111.413,244.617c3.162,5.389,8.205,6.461,13.666,7.021c8.36,0.858,16.674,0.508,24.815-1.327
			c9.633-2.171,17.455-7.354,22.609-15.965c1.482-2.478,2.352-5.321,3.748-8.573c1.505,6.961-0.588,12.375-4.482,17.192
			c-4.965,6.141-11.453,10.183-18.981,12.325c-10.789,3.073-21.711,3.135-32.554,0.232c-2.35-0.629-4.65-1.86-6.647-3.274
			C111.141,250.519,110.102,247.963,111.413,244.617z"/>
		<path fill="#F47735" d="M114.727,124.914c-3.998,5.062-9.056,9.035-14.182,12.894c-8.688,6.536-18.377,11.33-28.203,15.881
			c-5.656,2.62-11.21,5.459-16.81,8.199c-0.226-0.267-0.451-0.532-0.677-0.8c1.96-1.873,3.677-4.131,5.924-5.551
			c8.284-5.237,16.713-10.248,25.145-15.248c8.865-5.257,17.793-10.406,26.701-15.588c0.414-0.24,0.91-0.341,1.368-0.506
			C114.238,124.435,114.482,124.674,114.727,124.914z"/>
		<path fill="#F47735" d="M141.449,208.527c-3.274-3.139-3.358-7.279-2.594-11.121c1.196-6,3.119-11.859,4.822-17.754
			c1.979-6.843,4.18-13.624,6.01-20.504c0.625-2.349,0.42-4.916,0.656-8.245c0.864,1.271,1.471,1.882,1.747,2.616
			c3.259,8.604,3.478,17.235-0.177,25.764c-1.896,4.427-4.074,8.736-6.195,13.064c-2.509,5.116-4.613,10.323-4.277,16.186
			L141.449,208.527z"/>
		<path fill="#F47735" d="M105.831,211.035c-3.144-16.871-14.106-27.412-31.509-30.312c-0.738-0.123-1.458-0.354-2.618-0.64
			c0.865-0.588,1.234-1.049,1.643-1.086c11.979-1.094,22.894,1.146,30.967,10.889C109.512,196.159,109.909,204.775,105.831,211.035z
			"/>
		<path fill="#F47735" d="M65.053,185.448c2.616,8.225,9.275,13.937,12.323,22.075c-7.901-0.092-21.405-10.127-25.624-18.732
			c2.657-2.217,5.519-2.717,8.788-1.152C61.817,187.018,63.125,186.383,65.053,185.448z"/>
		<path fill="#F47735" d="M104.407,116.509c-3.259,3.485-6.152,7.434-9.859,10.347c-5.197,4.083-10.834,7.688-16.587,10.962
			c-6.362,3.619-12.849,6.946-18.323,12.432c0.195-0.953,0.129-2.082,0.631-2.83c1.925-2.875,3.448-6.557,6.17-8.266
			c12.484-7.835,25.325-15.104,38.036-22.577L104.407,116.509z"/>
		<path fill="#F47735" d="M56.828,19.965c-4.567,5.925-9.202,11.799-13.679,17.79c-3.289,4.401-6.201,9.089-9.588,13.409
			c-4.088,5.217-5.991,10.961-6.017,17.579c-0.015,3.784-0.582,7.628-1.417,11.329c-0.681,3.016-2.395,5.633-6.426,7.694
			c0.861-1.934,1.146-2.842,1.633-3.623c2.368-3.811,3.27-7.964,3.169-12.405c-0.049-2.164-0.018-4.334,0.099-6.496
			c0.286-5.28,1.901-9.9,5.38-14.158c4.838-5.923,8.766-12.586,13.563-18.547c3.822-4.748,8.362-8.92,12.583-13.347
			C56.362,19.448,56.595,19.707,56.828,19.965z"/>
		<path fill="#F47735" d="M109.773,227.162c-8.771-0.057-17.727-4.949-19.817-11.242c6.812-1.871,13.992,1.619,20.619-1.966
			C111.881,218.948,112.382,223.201,109.773,227.162z"/>
		<path fill="#F47735" d="M136.811,215.148c-8.494-2.869-16.414-10.242-17.082-16.076c1.316,0.074,2.609-0.09,3.748,0.254
			c3.633,1.098,7.297,2.178,10.756,3.699c1.324,0.581,2.285,2.24,3.129,3.584c0.852,1.356,1.354,2.934,2.16,4.756
			C138.787,212.391,137.85,213.698,136.811,215.148z"/>
		<path fill="#F47735" d="M6.466,24.855c7.695,1.776,15.044,4.66,21.631,9.139c2.805,1.908,2.645,4.428,0.108,9.896
			C20.954,37.54,13.71,31.197,6.466,24.855z"/>
		<path fill="#F47735" d="M112.141,162.177c6.607-5.298,12.879-11.103,19.916-15.749c7.006-4.626,14.92-5.692,22.75-1.28
			c1.473,0.83,2.752,2.002,3.613,3.824c-0.59-0.151-1.253-0.178-1.758-0.474c-6.688-3.909-13.658-3.381-20.156-0.195
			c-6.541,3.207-12.586,7.427-18.834,11.226c-1.701,1.033-3.352,2.152-5.025,3.231C112.479,162.566,112.309,162.371,112.141,162.177
			z"/>
		<path fill="#F47735" d="M101.093,174.88c2.897-0.39,5.681-0.764,8.812-1.185c2.789,4.607,5.707,9.43,8.884,14.677
			C111.725,187.736,103.357,181.281,101.093,174.88z"/>
		<path fill="#F47735" d="M112.646,162.76c-7.158,6.428-15.948,6.582-24.829,6.414c8.418-1.266,16.733-2.881,24.323-6.997
			C112.309,162.371,112.479,162.566,112.646,162.76z"/>
		<path fill="#F47735" d="M20.465,156.506c2.052,0.933,4.104,1.865,6.157,2.797c-0.146,0.183-0.291,0.364-0.434,0.548
			c-1.922-1.101-3.845-2.199-5.767-3.3L20.465,156.506z"/>
		<path fill="#F47735" d="M56.128,19.19c0.576-0.411,1.152-0.821,1.729-1.232c0.387,0.413,0.774,0.827,1.162,1.24
			c-0.73,0.255-1.46,0.511-2.191,0.767C56.595,19.707,56.362,19.448,56.128,19.19z"/>
		<path fill="#F47735" d="M95.456,154.542c-0.336,0.648-0.672,1.297-1.008,1.945l0.059,0.062c0.312-0.674,0.62-1.349,0.931-2.022
			L95.456,154.542z"/>
		<path fill="#F47735" d="M65.286,0.334c0.335-0.047,0.671-0.094,1.007-0.141c-0.219,0.182-0.438,0.363-0.658,0.544
			C65.519,0.604,65.402,0.469,65.286,0.334z"/>
		<path fill="#F47735" d="M19.469,155.487l-0.064,0.062C19.405,155.552,19.469,155.487,19.469,155.487z"/>
		<path fill="#F47735" d="M20.42,156.551c-0.317-0.354-0.634-0.709-0.951-1.062c0-0.001-0.064,0.062-0.064,0.062
			c0.353,0.318,0.706,0.639,1.06,0.955L20.42,156.551z"/>
		<path fill="#F47735" d="M104.473,116.575l-0.065-0.066L104.473,116.575z"/>
		<path fill="#F47735" d="M94.448,156.487l0.059,0.062L94.448,156.487z"/>
		<path fill="#F47735" d="M141.441,208.533l0.008-0.006L141.441,208.533z"/>
	</g>
</g>
</svg>
