<?xml version="1.0" encoding="utf-8"?>
<!-- Generator: Adobe Illustrator 16.0.0, SVG Export Plug-In . SVG Version: 6.00 Build 0)  -->
<!DOCTYPE svg PUBLIC "-//W3C//DTD SVG 1.1//EN" "http://www.w3.org/Graphics/SVG/1.1/DTD/svg11.dtd">
<svg version="1.1" id="Layer_1" xmlns="http://www.w3.org/2000/svg" xmlns:xlink="http://www.w3.org/1999/xlink" x="0px" y="0px"
	 width="179.293px" height="257.65px" viewBox="0 0 179.293 257.65" enable-background="new 0 0 179.293 257.65"
	 xml:space="preserve">
<g id="gb9L4o.tif">
	<g>
		<path fill-rule="evenodd" clip-rule="evenodd" fill="#F47735" d="M95.436,154.525c1.052-1.656,1.854-3.555,3.193-4.93
			c13.013-13.365,28.959-21.4,47.316-23.631c11.492-1.397,19.162,2.574,24.216,15.781c5.529,14.45,8.452,29.811,9.084,45.363
			c0.388,9.539-1.63,18.868-4.951,27.863c-1.438,3.898-3.868,7.082-7.399,9.154c-14.39,8.443-29.865,13.777-46.488,15.547
			c-3.316,0.354-6.713,0.197-8.933-4.169c8.666,2.575,15.82-1.419,23.282-3.45c7.588-2.066,14.587-5.479,21.25-9.736
			c9.082-5.805,13.258-13.793,13.385-24.589c0.168-14.218-1.34-28.244-3.389-42.249c-0.384-2.621-1.126-5.209-1.904-7.75
			c-3.105-10.135-10.054-15.551-20.787-14.861c-17.262,1.11-32.887,6.598-45.242,19.424c-0.794,0.824-1.738,1.503-2.613,2.249
			L95.436,154.525z"/>
		<path fill-rule="evenodd" clip-rule="evenodd" fill="#F47735" d="M26.622,159.303c2.14,0.297,4.279,0.811,6.42,0.82
			c1.729,0.008,3.461-0.592,5.775-1.034c-0.737-1.541-1.082-2.58-1.676-3.448c-2.419-3.537-2.281-5.328,0.894-8.112
			c0.996-0.874,2.09-1.675,3.243-2.323c8.008-4.502,11.52-11.666,12.282-20.496c0.083-0.959,0.218-1.914,0.398-3.462
			c2.441,1.729,2.851,3.95,2.608,5.928c-0.705,5.743-1.429,11.527-2.815,17.13c-1.354,5.471-3.783,10.668-5.284,16.112
			c-1.725,6.255,1.32,10.752,7.842,10.903c6.107,0.142,12.242-0.847,18.364-1.342c2.131-0.172,4.261-0.355,6.509,0.168
			c-3.094,0.521-6.179,1.093-9.282,1.553c-7.305,1.082-13.682,4.02-18.962,9.248c-2.13,2.108-4.266,4.215-6.485,6.229
			c-1.164,1.055-2.513,1.906-4.049,3.051c-1.842-3.266-0.9-5.83,0.2-8.145c3.282-6.902,2.187-11.293-5.44-16.387
			c-3.43-2.291-7.304-3.918-10.977-5.846C26.331,159.667,26.476,159.484,26.622,159.303z"/>
		<path fill-rule="evenodd" clip-rule="evenodd" fill="#F47735" d="M66.302,0.404C55.939,8.426,45.56,16.428,35.226,24.486
			c-2.652,2.068-5.502,3.132-8.82,2.234c-6.546-1.771-13.186-3.301-19.559-5.57c-3.779-1.345-7.198-4.023-6.818-8.816
			c0.387-4.883,4.381-6.311,8.27-7.463c5.109-1.513,10.332-2.263,15.787-1.008c-2.603,0.511-5.288,0.773-7.786,1.599
			c-2.797,0.925-5.702,1.976-8.057,3.672c-2.889,2.08-2.59,5.183,0.609,6.797c2.613,1.319,5.594,2.099,8.501,2.605
			c7.222,1.257,13.984,0.616,20.496-3.657c7.207-4.73,14.996-8.578,22.586-12.709c1.723-0.938,3.672-1.457,5.517-2.17
			C66.069,0.135,66.185,0.27,66.302,0.404z"/>
		<path fill-rule="evenodd" clip-rule="evenodd" fill="#F47735" d="M54.697,78.324c-1.308,0.962-2.58,1.979-3.93,2.877
			c-9.416,6.27-16.306,14.564-20.646,25.059c-4.717,11.405-9.075,22.907-11.39,35.086c-0.243,1.279-0.621,2.532-0.936,3.797
			c-0.337-0.004-0.675-0.01-1.013-0.015c0.127-2.622-0.078-5.313,0.445-7.854c1.51-7.333,3.237-14.626,5.028-21.896
			c1.249-5.07,1.917-10.088,0.867-15.31c-0.424-2.113-0.07-4.381,0.799-6.668c0.766,2.191,1.531,4.382,2.297,6.572
			c0.4,0.004,0.801,0.008,1.201,0.012c0.548-1.455,1.43-2.877,1.585-4.373c0.58-5.604,1.01-11.229,1.327-16.855
			c0.261-4.643,0.229-9.303,0.452-13.948c0.051-1.058,0.617-2.092,1.373-3.116c-0.928,8.717,1.341,16.915,2.704,25.496
			c6.802-3.561,12.945-6.777,19.088-9.993C54.198,77.57,54.448,77.947,54.697,78.324z"/>
		<path fill-rule="evenodd" clip-rule="evenodd" fill="#F47735" d="M111.413,244.617c3.162,5.389,8.205,6.461,13.666,7.021
			c8.36,0.859,16.674,0.508,24.816-1.327c9.633-2.171,17.454-7.353,22.609-15.965c1.483-2.477,2.352-5.321,3.748-8.573
			c1.505,6.961-0.588,12.375-4.482,17.193c-4.965,6.14-11.453,10.182-18.982,12.325c-10.789,3.073-21.711,3.135-32.553,0.232
			c-2.35-0.629-4.651-1.86-6.648-3.274C111.141,250.519,110.102,247.963,111.413,244.617z"/>
		<path fill-rule="evenodd" clip-rule="evenodd" fill="#F47735" d="M114.726,124.914c-3.997,5.061-9.055,9.035-14.181,12.893
			c-8.688,6.537-18.377,11.33-28.203,15.881c-5.656,2.62-11.21,5.459-16.81,8.199c-0.226-0.266-0.451-0.532-0.677-0.799
			c1.96-1.873,3.677-4.131,5.924-5.551c8.284-5.237,16.713-10.248,25.145-15.248c8.865-5.257,17.793-10.406,26.701-15.588
			c0.414-0.24,0.91-0.341,1.368-0.506C114.238,124.435,114.482,124.674,114.726,124.914z"/>
		<path fill-rule="evenodd" clip-rule="evenodd" fill="#F47735" d="M141.449,208.527c-3.274-3.139-3.358-7.279-2.593-11.121
			c1.196-6,3.119-11.859,4.822-17.754c1.978-6.843,4.18-13.624,6.01-20.504c0.625-2.348,0.42-4.916,0.656-8.245
			c0.864,1.272,1.47,1.882,1.747,2.616c3.259,8.604,3.478,17.236-0.177,25.764c-1.896,4.427-4.074,8.736-6.195,13.064
			c-2.509,5.117-4.613,10.324-4.277,16.186L141.449,208.527z"/>
		<path fill-rule="evenodd" clip-rule="evenodd" fill="#F47735" d="M105.831,211.035c-3.144-16.871-14.106-27.412-31.509-30.312
			c-0.738-0.123-1.458-0.353-2.618-0.639c0.865-0.588,1.234-1.049,1.643-1.086c11.979-1.094,22.894,1.146,30.967,10.889
			C109.511,196.159,109.909,204.775,105.831,211.035z"/>
		<path fill-rule="evenodd" clip-rule="evenodd" fill="#F47735" d="M65.053,185.448c2.616,8.225,9.275,13.937,12.323,22.075
			c-7.901-0.092-21.405-10.127-25.624-18.732c2.657-2.217,5.519-2.717,8.788-1.153C61.817,187.018,63.125,186.383,65.053,185.448z"
			/>
		<path fill-rule="evenodd" clip-rule="evenodd" fill="#F47735" d="M104.407,116.509c-3.258,3.485-6.152,7.433-9.859,10.346
			c-5.197,4.083-10.834,7.688-16.587,10.962c-6.362,3.619-12.849,6.946-18.323,12.432c0.195-0.953,0.129-2.082,0.631-2.83
			c1.925-2.875,3.448-6.557,6.17-8.266c12.484-7.835,25.324-15.104,38.035-22.577L104.407,116.509z"/>
		<path fill-rule="evenodd" clip-rule="evenodd" fill="#F47735" d="M56.828,19.965c-4.567,5.924-9.202,11.798-13.679,17.79
			c-3.289,4.401-6.201,9.089-9.588,13.409c-4.088,5.217-5.991,10.961-6.017,17.579c-0.015,3.784-0.582,7.628-1.417,11.329
			c-0.681,3.016-2.395,5.633-6.426,7.694c0.861-1.933,1.146-2.841,1.633-3.623c2.368-3.81,3.27-7.964,3.169-12.405
			c-0.049-2.164-0.018-4.334,0.099-6.496c0.286-5.28,1.901-9.9,5.38-14.158c4.838-5.923,8.766-12.586,13.563-18.547
			c3.822-4.748,8.362-8.92,12.583-13.347C56.362,19.448,56.595,19.707,56.828,19.965z"/>
		<path fill-rule="evenodd" clip-rule="evenodd" fill="#F47735" d="M109.773,227.162c-8.771-0.057-17.726-4.949-19.817-11.242
			c6.812-1.871,13.992,1.619,20.619-1.966C111.881,218.948,112.382,223.201,109.773,227.162z"/>
		<path fill-rule="evenodd" clip-rule="evenodd" fill="#F47735" d="M136.81,215.148c-8.494-2.869-16.413-10.242-17.081-16.076
			c1.316,0.074,2.609-0.09,3.748,0.254c3.632,1.098,7.296,2.178,10.756,3.699c1.323,0.581,2.284,2.24,3.128,3.584
			c0.852,1.357,1.354,2.934,2.16,4.756C138.787,212.391,137.85,213.698,136.81,215.148z"/>
		<path fill-rule="evenodd" clip-rule="evenodd" fill="#F47735" d="M6.466,24.855c7.695,1.777,15.044,4.66,21.631,9.139
			c2.805,1.908,2.645,4.428,0.108,9.895C20.954,37.54,13.71,31.197,6.466,24.855z"/>
		<path fill-rule="evenodd" clip-rule="evenodd" fill="#F47735" d="M112.14,162.177c6.608-5.298,12.88-11.103,19.917-15.749
			c7.006-4.626,14.92-5.693,22.749-1.281c1.474,0.83,2.753,2.002,3.614,3.824c-0.59-0.151-1.253-0.177-1.758-0.473
			c-6.688-3.909-13.658-3.381-20.156-0.195c-6.541,3.207-12.586,7.426-18.834,11.225c-1.701,1.033-3.352,2.152-5.025,3.232
			C112.478,162.566,112.309,162.371,112.14,162.177z"/>
		<path fill-rule="evenodd" clip-rule="evenodd" fill="#F47735" d="M101.093,174.88c2.897-0.39,5.681-0.764,8.812-1.185
			c2.789,4.608,5.707,9.43,8.883,14.677C111.724,187.736,103.358,181.281,101.093,174.88z"/>
		<path fill-rule="evenodd" clip-rule="evenodd" fill="#F47735" d="M112.647,162.76c-7.158,6.427-15.949,6.582-24.829,6.414
			c8.419-1.266,16.733-2.881,24.322-6.997C112.309,162.371,112.478,162.566,112.647,162.76z"/>
		<path fill-rule="evenodd" clip-rule="evenodd" fill="#F47735" d="M20.465,156.506c2.052,0.932,4.104,1.865,6.157,2.797
			c-0.146,0.182-0.291,0.364-0.434,0.547c-1.922-1.1-3.845-2.199-5.767-3.299L20.465,156.506z"/>
		<path fill-rule="evenodd" clip-rule="evenodd" fill="#F47735" d="M56.128,19.19c0.576-0.411,1.152-0.821,1.729-1.232
			c0.387,0.413,0.774,0.827,1.162,1.24c-0.73,0.255-1.46,0.511-2.191,0.767C56.595,19.707,56.362,19.448,56.128,19.19z"/>
		<path fill-rule="evenodd" clip-rule="evenodd" fill="#F47735" d="M95.456,154.542c-0.336,0.648-0.672,1.297-1.008,1.945
			l0.059,0.062c0.311-0.674,0.62-1.349,0.93-2.023L95.456,154.542z"/>
		<path fill-rule="evenodd" clip-rule="evenodd" fill="#F47735" d="M65.286,0.334c0.335-0.047,0.671-0.094,1.007-0.141
			c-0.219,0.182-0.438,0.363-0.658,0.544C65.519,0.604,65.402,0.469,65.286,0.334z"/>
		<path fill-rule="evenodd" clip-rule="evenodd" fill="#F47735" d="M19.469,155.487l-0.064,0.063
			C19.405,155.552,19.469,155.487,19.469,155.487z"/>
		<path fill-rule="evenodd" clip-rule="evenodd" fill="#F47735" d="M20.42,156.551c-0.317-0.354-0.634-0.709-0.951-1.062
			c0-0.001-0.064,0.063-0.064,0.062c0.353,0.318,0.706,0.638,1.06,0.955L20.42,156.551z"/>
		<path fill-rule="evenodd" clip-rule="evenodd" fill="#F47735" d="M104.473,116.575l-0.066-0.066L104.473,116.575z"/>
		<path fill-rule="evenodd" clip-rule="evenodd" fill="#F47735" d="M94.448,156.487l0.059,0.062L94.448,156.487z"/>
		<path fill-rule="evenodd" clip-rule="evenodd" fill="#F47735" d="M141.442,208.533l0.007-0.006L141.442,208.533z"/>
	</g>
</g>
</svg>
